<?xml version="1.0" encoding="UTF-8"?>
<svg xmlns="http://www.w3.org/2000/svg" xmlns:xlink="http://www.w3.org/1999/xlink" width="375pt" height="374.999991pt" viewBox="0 0 375 374.999991" version="1.2">
<defs>
<clipPath id="clip1">
  <path d="M 6 0 L 375 0 L 375 331.394531 L 6 331.394531 Z M 6 0 "/>
</clipPath>
<clipPath id="clip2">
  <path d="M 6 177 L 297 177 L 297 331.394531 L 6 331.394531 Z M 6 177 "/>
</clipPath>
</defs>
<g id="surface1">
<path style=" stroke:none;fill-rule:nonzero;fill:rgb(45.098877%,59.21936%,85.488892%);fill-opacity:1;" d="M 394.910156 61.015625 C 385.488281 77.046875 369.945312 88.558594 351.863281 92.90625 C 342.832031 95.074219 333.449219 91.046875 328.808594 83.007812 C 324.164062 74.96875 325.367188 64.832031 331.757812 58.101562 C 344.566406 44.617188 362.3125 36.921875 380.914062 36.777344 C 393.410156 36.683594 401.242188 50.242188 394.910156 61.015625 Z M 394.910156 61.015625 "/>
<path style=" stroke:none;fill-rule:nonzero;fill:rgb(45.098877%,59.21936%,85.488892%);fill-opacity:1;" d="M 402.882812 116.28125 C 388.542969 128.125 370 133.628906 351.515625 131.527344 C 342.289062 130.480469 334.851562 123.488281 333.238281 114.347656 C 331.625 105.203125 336.222656 96.089844 344.535156 91.953125 C 361.183594 83.660156 380.492188 82.492188 398.019531 88.71875 C 409.796875 92.902344 412.519531 108.320312 402.882812 116.28125 Z M 402.882812 116.28125 "/>
<g clip-path="url(#clip1)" clip-rule="nonzero">
<path style=" stroke:none;fill-rule:nonzero;fill:rgb(50.19989%,73.329163%,90.19928%);fill-opacity:1;" d="M 378.28125 121.046875 C 376.398438 237.507812 281.367188 331.332031 164.410156 331.332031 C 104.863281 331.332031 51 307.007812 12.222656 267.761719 C -0.0117188 255.378906 9.058594 234.507812 26.46875 234.582031 L 26.976562 234.582031 C 91.660156 234.582031 144.089844 182.171875 144.089844 117.523438 C 144.089844 52.648438 196.882812 0.101562 261.863281 0.460938 C 327.066406 0.824219 379.339844 55.882812 378.28125 121.046875 Z M 378.28125 121.046875 "/>
</g>
<g clip-path="url(#clip2)" clip-rule="nonzero">
<path style=" stroke:none;fill-rule:nonzero;fill:rgb(46.269226%,67.449951%,83.139038%);fill-opacity:1;" d="M 127.351562 177.855469 C 106.859375 211.847656 69.574219 234.582031 26.976562 234.582031 C 26.808594 234.582031 26.636719 234.582031 26.46875 234.582031 C 9.058594 234.507812 -0.0117188 255.378906 12.222656 267.765625 C 51 307.011719 104.863281 331.332031 164.410156 331.332031 C 214.171875 331.332031 259.957031 314.339844 296.300781 285.851562 C 182.59375 302.066406 136.75 242.597656 127.351562 177.855469 Z M 127.351562 177.855469 "/>
</g>
<path style=" stroke:none;fill-rule:nonzero;fill:rgb(45.098877%,59.21936%,85.488892%);fill-opacity:1;" d="M 194.671875 128.386719 C 183.753906 117.464844 169.167969 112.433594 154.875 113.296875 C 148.59375 113.679688 142.253906 113.003906 136.398438 110.691406 C 117.199219 103.109375 103.621094 84.398438 103.621094 62.515625 C 103.621094 62.4375 103.621094 62.363281 103.621094 62.285156 C 103.65625 54.597656 94.472656 50.53125 88.996094 55.929688 C 71.585938 73.082031 60.800781 96.925781 60.800781 123.289062 C 60.800781 128.394531 61.210938 133.402344 61.988281 138.285156 C 56.976562 135.835938 52.28125 132.535156 48.117188 128.367188 C 48.066406 128.316406 48.007812 128.265625 47.957031 128.210938 C 42.542969 122.75 33.171875 126.363281 33.117188 134.050781 C 32.945312 158.484375 42.179688 182.96875 60.832031 201.609375 C 97.171875 237.9375 155.714844 238.539062 192.796875 203.421875 C 214.160156 183.1875 215.476562 149.199219 194.671875 128.386719 Z M 194.671875 128.386719 "/>
<path style=" stroke:none;fill-rule:nonzero;fill:rgb(100%,100%,100%);fill-opacity:1;" d="M 326.714844 113.195312 C 326.714844 97.625 310.859375 85.003906 291.296875 85.003906 C 271.738281 85.003906 255.878906 97.625 255.878906 113.195312 C 255.878906 128.765625 271.738281 141.386719 291.296875 141.386719 C 310.859375 141.386719 326.714844 128.765625 326.714844 113.195312 Z M 326.714844 113.195312 "/>
<path style=" stroke:none;fill-rule:nonzero;fill:rgb(28.62854%,31.369019%,34.899902%);fill-opacity:1;" d="M 328.796875 88.40625 C 325.542969 88.40625 322.90625 85.769531 322.90625 82.519531 C 322.90625 76.46875 317.988281 71.554688 311.941406 71.554688 C 305.890625 71.554688 300.972656 76.46875 300.972656 82.519531 C 300.972656 85.769531 298.332031 88.40625 295.082031 88.40625 C 291.824219 88.40625 289.191406 85.769531 289.191406 82.519531 C 289.191406 69.976562 299.394531 59.777344 311.941406 59.777344 C 324.480469 59.777344 334.6875 69.976562 334.6875 82.519531 C 334.6875 85.769531 332.050781 88.40625 328.796875 88.40625 Z M 328.796875 88.40625 "/>
<path style=" stroke:none;fill-rule:nonzero;fill:rgb(41.178894%,53.329468%,76.858521%);fill-opacity:1;" d="M 192.792969 203.421875 C 194.253906 202.039062 195.613281 200.585938 196.882812 199.085938 C 106.109375 228.058594 65.382812 134.269531 73.125 76.585938 C 65.28125 90.367188 60.800781 106.300781 60.800781 123.289062 C 60.800781 128.394531 61.207031 133.402344 61.988281 138.285156 C 56.976562 135.835938 52.28125 132.535156 48.117188 128.367188 C 48.0625 128.316406 48.007812 128.265625 47.957031 128.210938 C 42.539062 122.75 33.167969 126.363281 33.117188 134.050781 C 32.941406 158.484375 42.179688 182.96875 60.832031 201.609375 C 97.167969 237.933594 155.714844 238.539062 192.792969 203.421875 Z M 192.792969 203.421875 "/>
</g>
</svg>
