<?xml version="1.0" encoding="UTF-8"?>
<svg xmlns="http://www.w3.org/2000/svg" xmlns:xlink="http://www.w3.org/1999/xlink" width="375pt" height="374.999991pt" viewBox="0 0 375 374.999991" version="1.2">
<defs>
<clipPath id="clip1">
  <path d="M 115 15.148438 L 260 15.148438 L 260 191 L 115 191 Z M 115 15.148438 "/>
</clipPath>
<clipPath id="clip2">
  <path d="M 4.585938 202 L 370.460938 202 L 370.460938 359.5 L 4.585938 359.5 Z M 4.585938 202 "/>
</clipPath>
</defs>
<g id="surface1">
<g clip-path="url(#clip1)" clip-rule="nonzero">
<path style=" stroke:none;fill-rule:nonzero;fill:rgb(14.118958%,74.119568%,78.039551%);fill-opacity:1;" d="M 122.429688 135.300781 C 127.636719 167.140625 155.199219 190.523438 187.523438 190.523438 C 219.847656 190.523438 247.410156 167.140625 252.625 135.300781 L 258.667969 98.390625 C 265.832031 54.609375 231.976562 14.855469 187.523438 14.855469 C 143.078125 14.855469 109.222656 54.609375 116.390625 98.390625 L 122.429688 135.300781 "/>
</g>
<g clip-path="url(#clip2)" clip-rule="nonzero">
<path style=" stroke:none;fill-rule:nonzero;fill:rgb(14.118958%,74.119568%,78.039551%);fill-opacity:1;" d="M 367.414062 321.320312 C 365.273438 306.839844 361.664062 292.265625 355.878906 279.019531 C 347.160156 259.042969 333.734375 246.75 314.472656 236.863281 C 292.15625 225.402344 269.832031 213.96875 247.511719 202.519531 L 207.84375 286.757812 L 200.824219 251.238281 L 212.453125 234.585938 L 200.824219 217.9375 L 174.226562 217.9375 L 162.601562 234.585938 L 174.226562 251.238281 L 167.203125 286.757812 L 127.542969 202.519531 C 105.222656 213.96875 82.894531 225.402344 60.582031 236.863281 C 41.316406 246.75 27.894531 259.042969 19.175781 279.019531 C 13.386719 292.265625 9.777344 306.839844 7.640625 321.320312 C 7.222656 324.171875 3.300781 359.5 5.023438 359.5 C 5.023438 359.5 96.277344 359.5 187.523438 359.5 C 278.777344 359.5 370.03125 359.5 370.03125 359.5 C 371.757812 359.5 367.832031 324.171875 367.414062 321.320312 "/>
</g>
</g>
</svg>
