<?xml version="1.0" encoding="UTF-8"?>
<svg xmlns="http://www.w3.org/2000/svg" xmlns:xlink="http://www.w3.org/1999/xlink" width="375pt" height="374.999991pt" viewBox="0 0 375 374.999991" version="1.2">
<g id="surface1">
<path style=" stroke:none;fill-rule:nonzero;fill:rgb(23.919678%,35.289001%,59.609985%);fill-opacity:1;" d="M 389.703125 412.46875 C 402.273438 412.46875 412.46875 402.277344 412.46875 389.703125 L 412.46875 22.765625 C 412.46875 10.191406 402.273438 0 389.703125 0 L 22.765625 0 C 10.1875 0 0 10.191406 0 22.765625 L 0 389.703125 C 0 402.277344 10.1875 412.46875 22.765625 412.46875 Z M 389.703125 412.46875 "/>
<path style=" stroke:none;fill-rule:nonzero;fill:rgb(100%,100%,100%);fill-opacity:1;" d="M 284.597656 412.46875 L 284.597656 252.742188 L 338.210938 252.742188 L 346.238281 190.488281 L 284.597656 190.488281 L 284.597656 150.746094 C 284.597656 132.722656 289.601562 120.441406 315.445312 120.441406 L 348.410156 120.425781 L 348.410156 64.75 C 342.707031 63.992188 323.140625 62.296875 300.375 62.296875 C 252.851562 62.296875 220.3125 91.308594 220.3125 144.582031 L 220.3125 190.488281 L 166.558594 190.488281 L 166.558594 252.738281 L 220.3125 252.738281 L 220.3125 412.46875 Z M 284.597656 412.46875 "/>
</g>
</svg>
