<?xml version="1.0" encoding="UTF-8"?>
<svg xmlns="http://www.w3.org/2000/svg" xmlns:xlink="http://www.w3.org/1999/xlink" width="375pt" height="374.999991pt" viewBox="0 0 375 374.999991" version="1.2">
<defs>
<clipPath id="clip1">
  <path d="M 3.492188 10.851562 L 229 10.851562 L 229 364.066406 L 3.492188 364.066406 Z M 3.492188 10.851562 "/>
</clipPath>
<clipPath id="clip2">
  <path d="M 254 158 L 371.742188 158 L 371.742188 188 L 254 188 Z M 254 158 "/>
</clipPath>
</defs>
<g id="surface1">
<g clip-path="url(#clip1)" clip-rule="nonzero">
<path style=" stroke:none;fill-rule:nonzero;fill:rgb(255%,255%,255%);fill-opacity:1;" d="M 155.441406 178.730469 C 155.441406 149.621094 202.796875 147.074219 202.796875 90.25 C 202.796875 49.085938 174.101562 29.378906 171.195312 27.570312 L 199.730469 27.570312 L 228.308594 10.851562 L 135.777344 10.851562 C 41.625 10.851562 26.5625 76.59375 26.5625 98.417969 C 26.5625 130.914062 51.972656 171.269531 103.160156 171.269531 C 107.820312 171.269531 112.769531 170.976562 118.03125 170.371094 C 117.164062 172.800781 113.464844 181.070312 113.464844 188.5625 C 113.464844 204.164062 123.488281 214.113281 126.949219 220.191406 C 70.941406 219.644531 3.496094 243.914062 3.496094 297.882812 C 3.496094 317.632812 20.492188 364.066406 100.289062 364.066406 C 191.300781 364.066406 218.863281 307.933594 218.863281 276.484375 C 218.863281 216.40625 155.441406 206.472656 155.441406 178.730469 Z M 124.546875 158.644531 C 92.683594 158.644531 65.785156 118.65625 65.785156 75.886719 C 65.785156 63.1875 71.914062 26.230469 107.125 26.230469 C 152.492188 26.230469 163.5625 93.429688 163.5625 111.710938 C 163.5625 115.933594 166.570312 158.644531 124.546875 158.644531 Z M 122.320312 344.640625 C 93.152344 344.640625 42.761719 332.1875 42.761719 288.050781 C 42.761719 272.789062 51.722656 232.832031 129.175781 232.832031 C 133.15625 232.832031 136.617188 232.980469 139.566406 233.289062 C 155.660156 245.296875 189.074219 262.636719 189.074219 294.617188 C 189.058594 309.113281 180.421875 344.640625 122.320312 344.640625 Z M 122.320312 344.640625 "/>
</g>
<path style=" stroke:none;fill-rule:nonzero;fill:rgb(255%,255%,255%);fill-opacity:1;" d="M 298.277344 113.871094 L 327.753906 113.871094 L 327.753906 231.609375 L 298.277344 231.609375 Z M 298.277344 113.871094 "/>
<g clip-path="url(#clip2)" clip-rule="nonzero">
<path style=" stroke:none;fill-rule:nonzero;fill:rgb(255%,255%,255%);fill-opacity:1;" d="M 254.058594 158.023438 L 371.972656 158.023438 L 371.972656 187.460938 L 254.058594 187.460938 Z M 254.058594 158.023438 "/>
</g>
</g>
</svg>
