<?xml version="1.0" encoding="UTF-8"?>
<svg xmlns="http://www.w3.org/2000/svg" xmlns:xlink="http://www.w3.org/1999/xlink" width="375pt" height="374.999991pt" viewBox="0 0 375 374.999991" version="1.2">
<defs>
<clipPath id="clip1">
  <path d="M 58.628906 6.6875 L 316.628906 6.6875 L 316.628906 368.183594 L 58.628906 368.183594 Z M 58.628906 6.6875 "/>
</clipPath>
</defs>
<g id="surface1">
<g clip-path="url(#clip1)" clip-rule="nonzero">
<path style=" stroke:none;fill-rule:nonzero;fill:rgb(0%,0%,0%);fill-opacity:1;" d="M 305.921875 127.515625 L 284.535156 127.515625 L 284.535156 27.746094 C 284.535156 16.234375 275.214844 6.914062 263.699219 6.914062 L 111.816406 6.914062 C 100.300781 6.914062 90.980469 16.234375 90.980469 27.746094 L 90.980469 127.515625 L 69.59375 127.515625 C 63.5625 127.515625 58.628906 132.449219 58.628906 138.480469 L 58.628906 357.75 C 58.628906 363.78125 63.5625 368.714844 69.59375 368.714844 L 305.921875 368.714844 C 311.953125 368.714844 316.886719 363.78125 316.886719 357.75 L 316.886719 138.480469 C 316.886719 132.449219 311.953125 127.515625 305.921875 127.515625 Z M 112.914062 28.84375 L 262.601562 28.84375 L 262.601562 127.515625 L 112.914062 127.515625 Z M 145.261719 301.835938 L 167.742188 262.367188 C 158.421875 256.335938 151.84375 245.921875 150.746094 234.410156 C 150.746094 233.3125 150.746094 232.21875 150.746094 231.121094 C 150.746094 224.542969 152.390625 217.964844 155.679688 212.484375 C 162.261719 201.519531 173.777344 194.394531 187.484375 194.394531 C 201.191406 194.394531 212.707031 201.519531 219.285156 212.484375 C 222.574219 217.964844 224.222656 224.542969 224.222656 231.121094 C 224.222656 232.21875 224.222656 233.3125 224.222656 234.410156 C 223.125 245.921875 216.542969 256.335938 207.222656 262.367188 L 229.703125 301.835938 Z M 145.261719 301.835938 "/>
</g>
</g>
</svg>
